<svg width="32" height="32" viewBox="0 0 32 32" fill="none" xmlns="http://www.w3.org/2000/svg">
<g clip-path="url(#clip0)">
<rect width="32" height="32" rx="8" fill="url(#paint0_linear)"/>
<path d="M13.7301 6.6991C13.5771 6.51096 13.4268 6.33908 13.2385 6.18421C12.0867 5.32308 10.1633 5.26696 9.33745 6.31511C9.1289 6.57978 9.01445 6.79596 9.03182 7.12201C9.10739 7.57856 9.4123 7.90162 9.75344 8.19144C10.32 8.60518 10.936 8.64619 11.6137 8.56695C11.8039 8.5411 11.9877 8.52579 12.1793 8.52543L12.2756 8.52598C12.4897 8.5248 12.6709 8.51815 12.8616 8.63052C12.8616 8.63052 13.4087 9.00417 13.5766 9.36869C13.7751 9.79931 13.792 10.1682 13.6126 10.5823C13.4605 10.8672 13.3008 11.1189 12.9592 11.2314C12.5486 11.3665 12.3926 11.2347 11.8867 10.9574C11.2364 10.6096 10.541 10.4818 9.81744 10.6961C9.14528 10.9698 8.69233 11.354 8.36638 12.0029C8.21968 12.3052 8.0799 12.6101 7.88366 12.8841C7.58741 13.2575 7.16728 13.3415 6.71641 13.4015C6.56296 13.4215 6.40958 13.441 6.25678 13.4655C5.62455 13.6246 5.14818 14.0869 4.8139 14.6291C4.44496 15.311 4.25 16.1715 4.45028 16.936C4.56215 17.2488 4.76176 17.4473 5.04481 17.6122C5.30057 17.7263 5.58347 17.6494 5.83788 17.5614C6.45017 17.3114 6.85495 16.8913 7.11477 16.2874C7.26381 15.9289 7.41239 15.5888 7.65312 15.2807C8.02453 14.9305 8.46177 14.8347 8.95946 14.8491C9.35599 14.8861 9.75961 15.0791 10.0269 15.3738C10.202 15.6167 10.258 15.8649 10.1665 16.1651C10.0733 16.4711 9.83738 16.5928 9.59264 16.7495C8.9532 17.1546 8.50172 17.673 8.29002 18.4127C8.14306 19.2104 8.29765 19.9752 8.74165 20.6505C8.92202 20.92 9.08025 21.1809 9.19836 21.4853C9.29914 21.8245 9.22723 22.0996 9.07619 22.4102C9.04615 22.4719 9.01655 22.5338 8.98735 22.5959C8.71432 23.1861 8.58411 23.8451 8.81491 24.4782L8.86328 24.5896C8.99783 24.9016 9.14208 25.1827 9.37672 25.4307L9.46835 25.5205C9.93348 25.9777 10.4047 26.3127 11.0509 26.4514C11.3552 26.4968 11.5892 26.4422 11.8421 26.2652C12.1134 26.0124 12.2442 25.6811 12.2741 25.3129C12.2788 24.7915 12.1632 24.4022 11.8012 24.0112C11.3957 23.5841 11.0364 23.1822 10.9112 22.5882C10.837 22.0445 11.0242 21.5153 11.3318 21.0704C11.5191 20.8425 11.694 20.703 11.9903 20.6568C12.2996 20.645 12.5705 20.6436 12.8196 20.8661C13.082 21.1005 13.0862 21.4275 13.113 21.7181C13.1343 22.1 13.1761 22.4531 13.285 22.821C13.5263 23.5474 14.0148 23.9749 14.682 24.3257L14.7773 24.3744C15.3086 24.6483 15.7973 24.7016 16.3857 24.6907C16.4976 24.6885 16.6096 24.6869 16.7215 24.6855L16.9358 24.6831C17.0536 24.6807 17.1521 24.661 17.2878 24.6827C17.6562 24.7418 17.8681 24.9566 18.0733 25.2267C18.1937 25.3871 18.318 25.535 18.4618 25.6751C19.0228 26.1999 19.6798 26.4365 20.4501 26.4152C21.1549 26.3639 21.8426 26.0895 22.3319 25.5705C22.5215 25.3291 22.5815 25.0956 22.5474 24.7758C22.4922 24.2594 22.0554 24.0238 21.6585 23.7866C21.2147 23.5681 20.6318 23.5965 20.1649 23.7286C19.7986 23.8346 19.4228 23.8481 19.0494 23.7662C18.6525 23.6361 18.4099 23.4454 18.1984 23.0857C18.0253 22.7193 17.9966 22.2305 18.1256 21.8435C18.262 21.5873 18.3906 21.3905 18.6763 21.2666C19.103 21.0816 19.2847 21.2292 19.8409 21.5155C20.3434 21.7644 20.7764 21.8336 21.3343 21.8144C21.9845 21.776 22.6731 21.4574 23.1128 20.969L23.199 20.8661C23.4649 20.5713 23.633 20.291 23.7774 19.9239C23.8825 19.6512 23.9767 19.3791 24.1328 19.131C24.3912 18.8277 24.6601 18.6929 25.0491 18.629C25.6744 18.5371 26.2727 18.38 26.7425 17.9316L26.8295 17.8407L26.9251 17.7411C27.4273 17.1687 27.6538 16.3321 27.6282 15.5798L27.6207 15.4669C27.6132 15.3381 27.5976 15.2226 27.5742 15.0946C27.4511 14.7255 27.2874 14.3908 26.8858 14.2511C26.6225 14.1595 26.4196 14.1343 26.172 14.2626C26.1166 14.2913 26.0824 14.3211 26.0382 14.3499C25.5218 14.6821 25.3128 15.0789 25.1257 15.6455C25.0009 16.0238 24.8482 16.3684 24.5924 16.6771C24.238 17.0429 23.7749 17.2399 23.2692 17.2549L23.1641 17.256C22.8264 17.2608 22.5497 17.198 22.2855 16.9709C22.0628 16.7668 21.8992 16.5659 21.8666 16.2378C21.8165 15.7324 22.0789 15.6116 22.5803 15.1504C23.0177 14.7271 23.3357 14.3169 23.5422 13.739C23.6914 13.2228 23.6889 12.6195 23.4538 12.1334L23.4055 12.0372C23.2903 11.8067 23.1707 11.5978 23.007 11.3972C22.811 11.167 22.6265 10.9376 22.4992 10.6614C22.3605 10.2893 22.3687 10.0058 22.5154 9.63723C22.7394 9.08989 22.8619 8.53675 22.7481 7.94708L22.687 7.78708C22.6025 7.553 22.515 7.32606 22.383 7.11419C21.9243 6.49648 21.418 6.02067 20.5723 5.89767C20.2163 5.84589 19.9545 5.86524 19.7111 6.03457C19.4503 6.25136 19.3146 6.43294 19.2782 6.77365C19.2628 7.24513 19.4069 7.60565 19.724 7.9529C20.1487 8.40257 20.414 8.8527 20.5459 9.46268C20.5999 9.91032 20.2638 10.7165 20.2638 10.7165C20.2638 10.7165 20.1721 10.8422 20.127 10.9056C20.0518 11.0077 20.0584 10.9856 20.0026 11.0447C19.9268 11.1247 19.8943 11.1383 19.7749 11.2039C19.6306 11.2835 19.4883 11.355 19.3358 11.4176C19.1024 11.4621 18.9314 11.4435 18.7133 11.3506C18.421 11.0653 18.3824 10.7224 18.36 10.3283C18.3275 9.57206 18.2171 8.92056 17.7451 8.30707C17.0844 7.61702 16.1871 7.42012 15.2661 7.38855C15.1018 7.38506 14.9382 7.38157 14.7744 7.36818C14.3045 7.28784 14.0231 7.05862 13.7301 6.6991Z" fill="#0F2230"/>
</g>
<defs>
<linearGradient id="paint0_linear" x1="16" y1="0" x2="16" y2="32" gradientUnits="userSpaceOnUse">
<stop stop-color="#E5F1F8"/>
<stop offset="1" stop-color="#88A0B0"/>
</linearGradient>
<clipPath id="clip0">
<rect width="32" height="32" rx="8" fill="white"/>
</clipPath>
</defs>
</svg>
