<svg width="700" height="206" viewBox="0 0 700 206" fill="none" xmlns="http://www.w3.org/2000/svg">
<path d="M349.402 51.3081H369.432L404.257 136.342H405.539L440.364 51.3081H460.394V160.698H444.691V81.5398H443.676L411.414 160.538H398.382L366.12 81.4864H365.105V160.698H349.402V51.3081Z" fill="black"/>
<path d="M474.083 160.698V78.6555H490.054V160.698H474.083ZM482.149 65.9966C479.371 65.9966 476.985 65.0708 474.991 63.2192C473.033 61.3319 472.054 59.0886 472.054 56.4891C472.054 53.8541 473.033 51.6107 474.991 49.7591C476.985 47.8718 479.371 46.9282 482.149 46.9282C484.926 46.9282 487.294 47.8718 489.253 49.7591C491.247 51.6107 492.244 53.8541 492.244 56.4891C492.244 59.0886 491.247 61.3319 489.253 63.2192C487.294 65.0708 484.926 65.9966 482.149 65.9966Z" fill="black"/>
<path d="M518.485 111.985V160.698H502.515V78.6555H517.844V92.0088H518.859C520.746 87.6645 523.702 84.1749 527.725 81.5398C531.785 78.9048 536.895 77.5873 543.055 77.5873C548.646 77.5873 553.542 78.7623 557.744 81.1125C561.945 83.4271 565.204 86.8811 567.518 91.4746C569.833 96.0682 570.99 101.748 570.99 108.513V160.698H555.02V110.436C555.02 104.49 553.471 99.8427 550.373 96.4955C547.275 93.1126 543.019 91.4212 537.607 91.4212C533.904 91.4212 530.61 92.2224 527.725 93.8248C524.877 95.4272 522.616 97.7774 520.942 100.875C519.304 103.938 518.485 107.641 518.485 111.985Z" fill="black"/>
<path d="M621.681 78.6555V91.4746H576.868V78.6555H621.681ZM588.885 58.9995H604.856V136.609C604.856 139.707 605.319 142.039 606.245 143.606C607.171 145.137 608.363 146.187 609.823 146.757C611.319 147.291 612.939 147.558 614.684 147.558C615.966 147.558 617.088 147.469 618.049 147.291C619.01 147.113 619.758 146.971 620.292 146.864L623.177 160.057C622.251 160.413 620.933 160.769 619.224 161.125C617.515 161.517 615.378 161.731 612.815 161.766C608.613 161.837 604.696 161.09 601.064 159.523C597.432 157.956 594.494 155.535 592.25 152.259C590.007 148.983 588.885 144.87 588.885 139.92V58.9995Z" fill="black"/>
<path d="M664.801 162.354C656.718 162.354 649.756 160.627 643.916 157.173C638.112 153.683 633.625 148.787 630.456 142.484C627.323 136.146 625.756 128.721 625.756 120.211C625.756 111.807 627.323 104.401 630.456 97.991C633.625 91.5815 638.041 86.5784 643.703 82.982C649.4 79.3855 656.059 77.5873 663.679 77.5873C668.308 77.5873 672.795 78.3528 677.139 79.884C681.483 81.4152 685.383 83.8188 688.837 87.0948C692.291 90.3708 695.015 94.626 697.009 99.8605C699.003 105.059 700 111.38 700 118.822V124.484H634.783V112.519H684.35C684.35 108.318 683.495 104.596 681.786 101.356C680.077 98.08 677.673 95.4984 674.575 93.6112C671.513 91.7239 667.917 90.7803 663.786 90.7803C659.299 90.7803 655.382 91.8841 652.035 94.0919C648.724 96.264 646.16 99.1127 644.344 102.638C642.563 106.128 641.673 109.92 641.673 114.015V123.362C641.673 128.846 642.634 133.511 644.557 137.356C646.516 141.202 649.24 144.14 652.729 146.17C656.219 148.164 660.296 149.161 664.961 149.161C667.988 149.161 670.747 148.733 673.24 147.879C675.733 146.989 677.887 145.671 679.703 143.926C681.519 142.181 682.908 140.027 683.869 137.463L698.985 140.187C697.774 144.638 695.602 148.538 692.469 151.885C689.371 155.196 685.472 157.778 680.771 159.63C676.107 161.446 670.783 162.354 664.801 162.354Z" fill="black"/>
<path d="M120.59 66.5737C119.271 66.0923 118.394 64.8379 118.394 63.4339V7.58358C118.394 6.18368 119.266 4.93208 120.58 4.44763L132.07 0.209483C134.252 -0.595561 136.569 1.01968 136.569 3.34598L136.558 67.6243C136.558 69.9453 134.25 71.5594 132.07 70.7636L120.59 66.5737Z" fill="black"/>
<path d="M134.375 200.844C135.694 200.362 136.572 199.108 136.572 197.704V141.853C136.572 140.454 135.699 139.202 134.386 138.718L122.896 134.479C120.713 133.674 118.396 135.29 118.397 137.616L118.407 201.894C118.408 204.215 120.716 205.829 122.896 205.034L134.375 200.844Z" fill="black"/>
<path d="M4.1902 94.1741C4.62398 92.7751 5.91804 91.8215 7.38271 91.8215H58.2441C59.7051 91.8215 60.9968 92.7704 61.4336 94.1645L65.5179 107.199C66.1925 109.352 64.584 111.541 62.3277 111.54L3.34411 111.529C1.09252 111.528 -0.514587 109.347 0.152255 107.197L4.1902 94.1741Z" fill="black"/>
<path d="M193.363 94.1741C193.796 92.7751 195.091 91.8215 196.555 91.8215H247.417C248.878 91.8215 250.169 92.7704 250.606 94.1645L254.69 107.199C255.365 109.352 253.756 111.541 251.5 111.54L192.517 111.529C190.265 111.528 188.658 109.347 189.325 107.197L193.363 94.1741Z" fill="black"/>
<path d="M123.603 93.7014C124.519 93.1269 125.666 93.0797 126.662 93.5754L230.324 145.133C231.316 145.626 232.029 146.592 232.23 147.713L235.028 163.345C235.514 166.061 232.922 168.118 230.52 166.923L111.411 107.669C109.016 106.478 108.754 103.018 110.955 101.638L123.603 93.7014Z" fill="black"/>
<path d="M126.079 93.6809C125.122 93.2044 123.988 93.2709 123.051 93.8585L24.2757 155.789C23.3434 156.373 22.7254 157.398 22.6233 158.53L21.1973 174.328C20.9475 177.096 23.7122 178.917 25.9927 177.487L139.433 106.349C141.707 104.923 141.641 101.427 139.318 100.271L126.079 93.6809Z" fill="black"/>
<path d="M123.603 112.838C124.519 113.412 125.666 113.46 126.662 112.964L230.324 61.4064C231.316 60.9133 232.029 59.9471 232.23 58.8263L235.028 43.1942C235.514 40.4785 232.922 38.4217 230.52 39.6166L111.411 98.8699C109.016 100.061 108.754 103.521 110.955 104.902L123.603 112.838Z" fill="black"/>
<path d="M126.079 112.858C125.122 113.335 123.988 113.268 123.051 112.681L24.2757 50.7506C23.3434 50.1661 22.7254 49.1409 22.6233 48.0095L21.1973 32.2108C20.9475 29.443 23.7122 27.6219 25.9927 29.0519L139.433 100.191C141.707 101.617 141.641 105.112 139.318 106.268L126.079 112.858Z" fill="black"/>
</svg>
